<svg xmlns="http://www.w3.org/2000/svg" width="273" height="273" viewBox="0 0 273 273"><defs><style>.a{fill:#fffcf2;}.b{fill:#ff9e80;}.c{fill:#eb5e28;}.d{fill:#fff;}</style></defs><g transform="translate(-390 -1207)"><circle class="a" cx="136.5" cy="136.5" r="136.5" transform="translate(390 1207)"/><g transform="translate(451.457 1270)"><path class="b" d="M275.8,79.836a3.205,3.205,0,0,0-1.276,2.56V94.764l-7.841-7.837a3.2,3.2,0,0,0-3.206-.8A40.175,40.175,0,0,1,251.665,87.9h-8.109a40.164,40.164,0,1,1,0-80.327h8.109A40.164,40.164,0,0,1,275.8,79.836Z" transform="translate(-143.676 -5.347)"/><g transform="translate(0 51.086)"><path class="c" d="M101.585,216.572a2.936,2.936,0,0,0-2.936,2.936v20.258a14.7,14.7,0,0,1-14.68,14.68H52.27a2.936,2.936,0,0,0-2.936,2.934l0,5.837-7.008-7.007a2.937,2.937,0,0,0-2.693-1.764H20.552a14.7,14.7,0,0,1-14.68-14.68V194.552a14.7,14.7,0,0,1,14.68-14.68H50.205a2.936,2.936,0,1,0,0-5.872H20.552A20.575,20.575,0,0,0,0,194.552v45.214a20.575,20.575,0,0,0,20.552,20.552H38.126l12.058,12.058A2.936,2.936,0,0,0,55.2,270.3l.007-9.984H83.969a20.575,20.575,0,0,0,20.552-20.552V219.508A2.936,2.936,0,0,0,101.585,216.572Z" transform="translate(0 -174)"/></g><g transform="translate(57.545)"><path class="c" d="M246.1,0h-7.431a42.673,42.673,0,0,0,0,85.347H246.1a42.755,42.755,0,0,0,10.831-1.388l10.977,10.971a2.936,2.936,0,0,0,5.011-2.077V75.866A43.082,43.082,0,0,0,284.14,62.037a42.214,42.214,0,0,0,4.637-19.363A42.722,42.722,0,0,0,246.1,0ZM268.22,72.089a2.937,2.937,0,0,0-1.169,2.345V85.767l-7.185-7.181a2.934,2.934,0,0,0-2.938-.73A36.811,36.811,0,0,1,246.1,79.475h-7.431a36.8,36.8,0,1,1,0-73.6H246.1A36.8,36.8,0,0,1,268.22,72.089Z" transform="translate(-196)"/></g><g transform="translate(92.326 20.57)"><path class="d" d="M339.292,81.619a12.459,12.459,0,0,0-11.525-11.525,12.334,12.334,0,0,0-9.355,3.312,12.475,12.475,0,0,0-3.95,9.088,2.936,2.936,0,0,0,5.872,0,6.559,6.559,0,0,1,7.029-6.542,6.559,6.559,0,0,1,.97,12.942,5.556,5.556,0,0,0-4.377,5.446v7.054a2.936,2.936,0,1,0,5.872,0V94.574A12.366,12.366,0,0,0,339.292,81.619Z" transform="translate(-314.462 -70.063)"/></g><g transform="translate(101.82 60.578)"><path class="d" d="M351.812,207.19a2.938,2.938,0,1,0,.86,2.076A2.958,2.958,0,0,0,351.812,207.19Z" transform="translate(-346.8 -206.33)"/></g><g transform="translate(15.854 91.016)"><path class="c" d="M118.885,310H56.936a2.936,2.936,0,0,0,0,5.872h61.949a2.936,2.936,0,0,0,0-5.872Z" transform="translate(-54 -310)"/></g><g transform="translate(77.804 107.457)"><path class="c" d="M270.011,366.86a2.934,2.934,0,1,0,.861,2.076A2.957,2.957,0,0,0,270.011,366.86Z" transform="translate(-265 -366)"/></g><g transform="translate(15.854 107.457)"><path class="c" d="M107.337,366h-50.4a2.936,2.936,0,1,0,0,5.872h50.4a2.936,2.936,0,0,0,0-5.872Z" transform="translate(-54 -366)"/></g><g transform="translate(15.854 74.574)"><path class="c" d="M99.8,254H56.936a2.936,2.936,0,1,0,0,5.872H99.8a2.936,2.936,0,1,0,0-5.872Z" transform="translate(-54 -254)"/></g></g></g></svg>