<svg xmlns="http://www.w3.org/2000/svg" width="273" height="273" viewBox="0 0 273 273"><defs><style>.a{fill:#fffcf2;}.b{fill:#eb5e28;}.c{fill:#ff9e80;}</style></defs><g transform="translate(-824 -1207)"><circle class="a" cx="136.5" cy="136.5" r="136.5" transform="translate(824 1207)"/><g transform="translate(846.943 1270)"><g transform="translate(54.154)"><path class="b" d="M113.9,0A59.733,59.733,0,0,0,80.385,109.187v38a4.372,4.372,0,0,0,6.166,3.987L113.9,138.866l27.352,12.308a4.372,4.372,0,0,0,6.166-3.987v-38A59.733,59.733,0,0,0,113.9,0Zm24.774,140.426L115.7,130.085a4.369,4.369,0,0,0-3.588,0l-22.98,10.341v-26.3a59.45,59.45,0,0,0,6.751,2.589c.13.041.26.084.391.124q.44.135.882.263.327.1.655.189.357.1.715.194.417.111.837.217.3.074.594.145.483.116.968.224l.5.11q.532.114,1.068.217l.436.084q.567.106,1.139.2c.131.022.261.044.392.065q.589.094,1.183.175l.367.051c.4.053.8.1,1.205.146l.36.041c.4.043.8.079,1.209.113.123.01.245.023.367.033.4.031.8.057,1.2.08.128.008.256.018.385.025.4.021.811.036,1.218.049.123,0,.244.011.367.014q.789.02,1.582.021t1.582-.021c.123,0,.244-.01.367-.014.407-.013.813-.028,1.218-.049.128-.007.257-.017.385-.025.4-.024.8-.049,1.2-.08.123-.009.245-.022.367-.033.4-.034.807-.071,1.209-.113.12-.013.24-.028.36-.041.4-.045.8-.093,1.205-.146l.367-.051q.593-.082,1.183-.175l.392-.065q.571-.1,1.139-.2l.436-.084q.536-.1,1.068-.217l.5-.11q.486-.108.968-.224l.594-.145q.42-.105.837-.217c.239-.064.477-.127.715-.194q.328-.092.655-.189c.295-.086.589-.173.882-.263l.391-.124a59.45,59.45,0,0,0,6.751-2.588v26.3Zm-8.129-32.463c-.174.06-.349.12-.524.179q-.4.133-.8.26-.468.147-.938.284c-.221.065-.443.13-.665.192q-.622.174-1.249.332c-.156.039-.312.077-.468.115q-.613.148-1.231.282c-.1.022-.206.046-.31.067q-.8.167-1.6.308l-.164.028q-.723.125-1.45.228l-.328.046c-.517.07-1.034.135-1.553.189l-.059.007q-.815.085-1.635.142c-.118.009-.237.015-.356.023q-.637.041-1.276.066l-.434.017c-.535.016-1.07.028-1.607.028s-1.072-.011-1.607-.028c-.145,0-.29-.011-.434-.017q-.639-.025-1.276-.066l-.356-.023q-.819-.059-1.635-.142l-.059-.007c-.519-.054-1.037-.119-1.553-.189l-.328-.046q-.727-.1-1.45-.228l-.164-.028q-.8-.141-1.6-.308l-.31-.067q-.617-.133-1.231-.282c-.156-.038-.313-.075-.468-.115q-.627-.157-1.249-.332c-.222-.062-.444-.127-.665-.192q-.47-.138-.938-.284-.4-.127-.8-.26c-.175-.058-.35-.119-.524-.179a51,51,0,1,1,33.289,0Z" transform="translate(-54.154)"/></g><g transform="translate(79.242 20.402)"><g transform="translate(0)"><path class="c" d="M202.062,141.811a5.275,5.275,0,0,0-4.292,2.479L189.582,157.4l-8.188-13.111a5.277,5.277,0,0,0-4.292-2.479l-15.448-.535,7.26-13.646a5.274,5.274,0,0,0,0-4.956l-7.26-13.646,15.448-.535a5.275,5.275,0,0,0,4.292-2.479l8.188-13.11,8.188,13.111a5.276,5.276,0,0,0,4.292,2.479l15.448.535-7.26,13.646a5.276,5.276,0,0,0,0,4.956l7.26,13.646Z" transform="translate(-154.921 -85.805)"/><path class="b" d="M199.505,108.271l8.212-15.434a4.372,4.372,0,0,0-3.708-6.423l-17.472-.605L177.276,70.98a4.372,4.372,0,0,0-7.416,0L160.6,85.809l-17.472.605a4.372,4.372,0,0,0-3.708,6.423l8.212,15.434-8.212,15.434a4.372,4.372,0,0,0,3.708,6.423l17.472.605,9.26,14.829a4.372,4.372,0,0,0,7.416,0l9.26-14.829,17.472-.605a4.372,4.372,0,0,0,3.708-6.423Zm-15.6,13.8a4.371,4.371,0,0,0-3.557,2.054l-6.785,10.864-6.784-10.864a4.373,4.373,0,0,0-3.557-2.054l-12.8-.444,6.016-11.307a4.371,4.371,0,0,0,0-4.107L150.427,94.91l12.8-.444a4.371,4.371,0,0,0,3.557-2.054l6.784-10.863,6.784,10.864a4.373,4.373,0,0,0,3.557,2.054l12.8.444-6.016,11.307a4.372,4.372,0,0,0,0,4.107l6.016,11.307Z" transform="translate(-138.907 -68.924)"/></g></g></g></g></svg>