<svg xmlns="http://www.w3.org/2000/svg" width="273" height="273" viewBox="0 0 273 273"><defs><style>.a{fill:#fffcf2;}.b{fill:#eb5e28;}</style></defs><g transform="translate(-1258 -1207)"><circle class="a" cx="136.5" cy="136.5" r="136.5" transform="translate(1258 1207)"/><path class="b" d="M-432.84,105.767h15.926a6.938,6.938,0,0,0,6.93-6.93V79.676l4.4-4.4a2.69,2.69,0,0,0,0-3.8,2.671,2.671,0,0,0-1.9-.787,2.672,2.672,0,0,0-1.9.787L-426.805,88.9l-5.18-5.18a2.67,2.67,0,0,0-1.9-.787,2.67,2.67,0,0,0-1.9.787,2.69,2.69,0,0,0,0,3.8l7.08,7.08a2.669,2.669,0,0,0,1.9.787,2.673,2.673,0,0,0,1.9-.787l9.547-9.547V98.837a1.557,1.557,0,0,1-1.556,1.556h-21.214a1.567,1.567,0,0,1-1.514-1.2c0-.02-.008-.04-.012-.06-.015-.894-.026-14.378-.03-21.514a1.557,1.557,0,0,1,1.556-1.555h19.234a2.69,2.69,0,0,0,2.687-2.687,2.69,2.69,0,0,0-2.687-2.687h-3.793c.183-1.019.364-2.061.542-3.111h5.232a6.938,6.938,0,0,0,6.93-6.93V41.491l4.4-4.4a2.69,2.69,0,0,0,0-3.8,2.671,2.671,0,0,0-1.9-.787,2.672,2.672,0,0,0-1.9.787l-17.416,17.417-5.18-5.18a2.67,2.67,0,0,0-1.9-.787,2.672,2.672,0,0,0-1.9.787,2.691,2.691,0,0,0,0,3.8l7.08,7.08a2.67,2.67,0,0,0,1.9.787,2.672,2.672,0,0,0,1.9-.787l9.547-9.547V60.652a1.557,1.557,0,0,1-1.556,1.556h-21.214a1.557,1.557,0,0,1-1.556-1.556V39.438a1.557,1.557,0,0,1,1.556-1.556h19.234a2.69,2.69,0,0,0,2.687-2.687,2.678,2.678,0,0,0-1.734-2.514c.481-6.428.519-9.47.519-10.262a4.667,4.667,0,0,0-2.25-4.118,2.691,2.691,0,0,0-1.318-.347,2.693,2.693,0,0,0-2.343,1.368,2.684,2.684,0,0,0,.535,3.311c-.008,1.006-.074,3.967-.52,9.875h-3.092c.173-2.283.3-4.369.391-6.206a2.687,2.687,0,0,0-1.5-2.538C-438.461,18.386-455.445,12.685-478,6.819a2.664,2.664,0,0,0-.656-.1h-.124a2.708,2.708,0,0,0-.675.1c-22.539,5.862-39.523,11.563-50.468,16.942a2.687,2.687,0,0,0-1.5,2.538c.551,11.727,4.76,59.211,15.289,77.275a2.7,2.7,0,0,0,2.323,1.334,2.688,2.688,0,0,0,1.351-.366,2.669,2.669,0,0,0,1.245-1.637,2.668,2.668,0,0,0-.277-2.038c-3.616-6.2-6.981-17.7-9.744-33.289h39.824v54.811c-7.387-3.195-18.148-9.37-25.2-15.869a2.68,2.68,0,0,0-1.82-.711,2.7,2.7,0,0,0-1.977.867,2.69,2.69,0,0,0,.157,3.8c8.647,7.963,22.2,15.408,30.567,18.374a2.679,2.679,0,0,0,.952.179c.081,0,.163,0,.253-.01h.006a2.687,2.687,0,0,0,.672-.15A102.928,102.928,0,0,0-457.863,118.6c7.468-4.873,13.084-9.818,15.9-13.993a6.961,6.961,0,0,0,2.993,1.106c-3.1,4.943-9.534,10.661-18.205,16.176-7.344,4.671-15.776,8.8-21.548,10.554-5.771-1.755-14.2-5.883-21.548-10.554-9.008-5.729-15.6-11.677-18.552-16.749-11.4-19.558-15.736-72.241-15.821-82.433,7.5-4.141,23.012-10.738,54.481-18.92.606-.158,1.091-.283,1.439-.376.348.092.833.219,1.439.376,21.1,5.485,37.462,10.867,48.637,16a2.668,2.668,0,0,0,1.119.245,2.7,2.7,0,0,0,2.444-1.567A2.67,2.67,0,0,0-425,16.41a2.67,2.67,0,0,0-1.4-1.508c-11.461-5.26-28.124-10.748-49.526-16.312l-.377-.1A12.192,12.192,0,0,0-478.718-2a12.191,12.191,0,0,0-2.415.49l-.376.1c-26.218,6.816-45.145,13.448-56.255,19.711a4.666,4.666,0,0,0-2.25,4.118c0,10.067,4.312,64.429,16.553,85.431,4.331,7.432,13.436,14.2,20.311,18.577,7.9,5.022,17.02,9.447,23.246,11.273a4.2,4.2,0,0,0,1.185.171,4.2,4.2,0,0,0,1.185-.171c6.226-1.826,15.351-6.252,23.246-11.273a101.425,101.425,0,0,0,9.228-6.572v17.168a6.938,6.938,0,0,0,6.93,6.93h21.214a6.938,6.938,0,0,0,6.93-6.929V117.862l4.4-4.4a2.69,2.69,0,0,0,0-3.8,2.669,2.669,0,0,0-1.9-.787,2.672,2.672,0,0,0-1.9.787l-17.416,17.417-5.18-5.18a2.67,2.67,0,0,0-1.9-.787,2.67,2.67,0,0,0-1.9.787,2.69,2.69,0,0,0,0,3.8l7.08,7.08a2.669,2.669,0,0,0,1.9.787,2.672,2.672,0,0,0,1.9-.787l9.547-9.547v13.787a1.557,1.557,0,0,1-1.556,1.556h-21.214a1.557,1.557,0,0,1-1.556-1.556V115.809a1.557,1.557,0,0,1,1.556-1.556h19.234a2.69,2.69,0,0,0,2.687-2.687,2.69,2.69,0,0,0-2.687-2.687h-15.714c.223-.346.435-.69.632-1.029C-433.595,107.2-433.214,106.5-432.84,105.767ZM-445.049,99.2c-.3.593-.6,1.153-.9,1.666-4.028,6.912-18.873,16.738-30.082,21.535V67.582h39.815c-.186,1.048-.376,2.09-.569,3.111h-1.342a6.938,6.938,0,0,0-6.93,6.93V98.837C-445.059,98.96-445.056,99.083-445.049,99.2Zm.166-37h-31.149V12.893c24.073,6.407,37.473,11.624,44.551,14.931-.084,1.449-.191,3.021-.32,4.684h-6.329a6.938,6.938,0,0,0-6.93,6.93V60.652A6.936,6.936,0,0,0-444.883,62.208Zm13.564,8.486c.19-1.028.378-2.071.559-3.111h3.163c-.179,1.041-.364,2.084-.552,3.111Zm-50.086-57.8V62.208h-40.728c-2.139-13.431-3.371-26.457-3.824-34.383C-518.878,24.517-505.476,19.3-481.405,12.893Z" transform="translate(1869.014 1275)"/></g></svg>