<svg xmlns="http://www.w3.org/2000/svg" width="19.579" height="24.031" viewBox="0 0 19.579 24.031"><defs><style>.a{fill:#fff;}</style></defs><g transform="translate(-47.427)"><path class="a" d="M188.99,392.138h-7.657v1.408h7.657a5.643,5.643,0,0,0,5.637-5.637v-.2a4.468,4.468,0,0,1-1.47.921,4.236,4.236,0,0,1-4.167,3.5Z" transform="translate(-127.621 -369.515)"/><path class="a" d="M67.006,11V9.79a9.79,9.79,0,0,0-19.579,0V11h2.714V9.782a7.076,7.076,0,1,1,14.152,0V11Z" transform="translate(0)"/><path class="a" d="M414.786,264.4h-2.452v5.531a3.056,3.056,0,0,0,2.452-2.991Z" transform="translate(-347.78 -251.99)"/><path class="a" d="M49.879,264.4H47.427v2.539a3.056,3.056,0,0,0,2.452,2.991Z" transform="translate(0 -251.99)"/><path class="a" d="M300.687,236.949v-5.687a1.581,1.581,0,0,0-1.581-1.581h-2.44v8.849h2.44A1.581,1.581,0,0,0,300.687,236.949Z" transform="translate(-237.541 -218.901)"/><path class="a" d="M129.666,231.262v5.687a1.581,1.581,0,0,0,1.581,1.581h2.44v-8.849h-2.44A1.581,1.581,0,0,0,129.666,231.262Z" transform="translate(-78.379 -218.901)"/></g></svg>