<svg xmlns="http://www.w3.org/2000/svg" width="24.17" height="18.411" viewBox="0 0 24.17 18.411"><defs><style>.a{fill:#fff;}</style></defs><g transform="translate(0 -61)"><g transform="translate(1.214 61)"><path class="a" d="M46.553,61H26.631a2.1,2.1,0,0,0-.91.213L36.545,72.037l2.426-2.331h0l8.492-8.492A2.1,2.1,0,0,0,46.553,61Z" transform="translate(-25.721 -61)"/></g><g transform="translate(15.966 62.215)"><path class="a" d="M346.2,86.728l-7.991,7.991,7.991,7.991a2.1,2.1,0,0,0,.213-.91V87.638A2.1,2.1,0,0,0,346.2,86.728Z" transform="translate(-338.213 -86.728)"/></g><g transform="translate(0 62.214)"><path class="a" d="M.213,86.721a2.1,2.1,0,0,0-.213.91v14.162a2.1,2.1,0,0,0,.213.91L8.2,94.712Z" transform="translate(0 -86.721)"/></g><g transform="translate(1.214 71.207)"><path class="a" d="M39.465,277.211l-2.426,2.332a.708.708,0,0,1-1,0l-2.332-2.332L25.714,285.2a2.1,2.1,0,0,0,.91.213H46.546a2.1,2.1,0,0,0,.91-.213Z" transform="translate(-25.714 -277.211)"/></g></g></svg>