<svg xmlns="http://www.w3.org/2000/svg" width="336.497" height="56.616" viewBox="0 0 336.497 56.616"><defs><style>.a{fill:#e71f19;}.b{fill:#284c64;}</style></defs><g transform="translate(0.022 1.977)"><g transform="translate(-0.022 -1.977)"><path class="a" d="M22.354,48.875a.5.5,0,0,1-.252-.154h0c-.5-.532-1.191-2.535-.967-9.735V20.341s.112-1.989-2.1-.826c0,0-7.256,4.763-7.494,26.5v.2a28.281,28.281,0,0,0,11.052,2.7.9.9,0,0,1-.238-.042Z" transform="translate(4.656 7.643)"/><path class="a" d="M12.614,8.4h8.895V3.409c0-1.009.644-2.928,2.059-2.928S25.641,2.4,25.641,3.409V8.4h8.937c.266-3.74,2.647-4.454,4.2-4.51A28.338,28.338,0,0,0,9.7,4.193C11.045,4.529,12.418,5.594,12.614,8.4Z" transform="translate(3.918 -0.023)"/><path class="a" d="M21.08,15.989c3.11-.6,9.147-2.535,8.979-8.279H21.08Z" transform="translate(8.479 3.058)"/><path class="a" d="M21.693,23.759a9.581,9.581,0,0,1,2.7-1.177s1.079-.14.995-.981c0,0,0-1.2-3.838-1.121,0,0-8.783-.2-8.6-10.66a28.3,28.3,0,0,0-.224-5.281,1.821,1.821,0,0,0-.658-.911,28.338,28.338,0,0,0,.448,46.744C12.826,44.407,14.339,28.354,21.693,23.759Z" transform="translate(0.022 1.423)"/><path class="a" d="M35.535,3.37a5.015,5.015,0,0,1-.476.336c-.9-.21-1.275.995-1.275.995a28.3,28.3,0,0,0-.224,5.281c.182,10.464-8.6,10.66-8.6,10.66-3.866-.084-3.838,1.121-3.838,1.121-.084.84,1.009.981,1.009.981a9.609,9.609,0,0,1,2.689,1.177c7.844,4.833,9.035,22.721,9.217,27.6a28.338,28.338,0,0,0,1.5-48.145Z" transform="translate(8.494 1.319)"/><path class="a" d="M20.688,15.989V7.71H11.751C11.583,13.425,17.564,15.358,20.688,15.989Z" transform="translate(4.739 3.058)"/><path class="a" d="M30.886,46.047c-.238-21.74-7.494-26.5-7.494-26.5-2.213-1.163-2.1.826-2.1.826v18.6c.2,6.261-.294,8.6-.756,9.441l-.084.14a.658.658,0,0,1-.42.322,1.064,1.064,0,0,1-.28.084h.672a28.2,28.2,0,0,0,10.45-2.017Z" transform="translate(7.946 7.655)"/><g transform="translate(65.643 14.059)"><path class="b" d="M73.679,23.781V26.2a.378.378,0,0,1-.392.392H72.278a.378.378,0,0,0-.378.378V28.7a.392.392,0,0,1-.392.392H54.39a.392.392,0,0,0-.28.112l-.995,1.037h13.56q.378,0,.378-.126l-.154-.784h3.18l.084.714a.741.741,0,0,0,0,.2V31.36c0,.742-.714,1.121-2.129,1.121H61.842v.84H71.83a.378.378,0,0,1,.448.392v1.723a.378.378,0,0,1-.392.378H61.842v.911H73.231a.392.392,0,0,1,.392.378v1.849a.392.392,0,0,1-.392.378H47.218a.378.378,0,0,1-.378-.378V37.089a.378.378,0,0,1,.378-.378h10.9V35.8H48.311a.378.378,0,0,1-.378-.378V33.713a.378.378,0,0,1,.378-.378h9.805v-.84H49.235a.392.392,0,0,1-.392-.392V30.477a.476.476,0,0,1,.1-.266l1.065-1.121H48.731a.392.392,0,0,1-.378-.392V27.045A.448.448,0,0,0,47.9,26.6h-.616a.448.448,0,0,1-.448-.448V23.781a.378.378,0,0,1,.378-.392H73.343A.378.378,0,0,1,73.679,23.781Zm-.35-12.4v1.723a.378.378,0,0,1-.392.378H62.01v.7H72.278a.378.378,0,0,1,.378.378v1.6a.378.378,0,0,1-.378.378H48.059a.378.378,0,0,1-.378-.378v-1.6a.378.378,0,0,1,.378-.378H58.27v-.7H47.456a.392.392,0,0,1-.392-.378V11.385a.392.392,0,0,1,.392-.378H58.27V10.25h3.838v.756H73.035a.378.378,0,0,1,.35.378ZM48.115,17.268H72.18a.378.378,0,0,1,.392.378v2.8a2.129,2.129,0,0,1-2.129,2.129H48.185a.406.406,0,0,1-.392-.392V17.646a.392.392,0,0,1,.392-.378ZM50.608,26.6H69.9v-.84H50.678Zm18.126-6.191c.224,0,.35,0,.35-.126v-.742H51.267v.868Z" transform="translate(-46.84 -9.983)"/><path class="b" d="M69.8,12.954H78.9a.728.728,0,0,0,.728-.728v-1.4a.714.714,0,0,1,.714-.714h3.012a.714.714,0,0,1,.714.714v1.4a.728.728,0,0,0,.728.728h9.385a.714.714,0,0,1,.714.714V32.676c0,2.171-1.037,3.264-3.11,3.264h-7a.714.714,0,0,0-.728.714v2.1a.714.714,0,0,1-.714.728h-3a.714.714,0,0,1-.714-.728v-2.1a.714.714,0,0,0-.728-.714H69.8a.714.714,0,0,1-.728-.714V13.668a.714.714,0,0,1,.728-.714ZM79.6,30.869v-13a.714.714,0,0,0-.728-.714H73.987a.714.714,0,0,0-.728.714v13a.714.714,0,0,0,.728.714H78.9a.714.714,0,0,0,.728-.714Zm10,.714c.714,0,1.079-.336,1.079-.995V17.87a.714.714,0,0,0-.728-.714H84.8a.714.714,0,0,0-.728.714v13a.714.714,0,0,0,.728.714Z" transform="translate(-37.93 -10.039)"/><path class="b" d="M102.362,10.06h3.04a.868.868,0,0,1,.868.868v.658a.868.868,0,0,0,.868.868h8.937a.868.868,0,0,1,.868.868v2.255a.868.868,0,0,1-.868.868h-24.6a.868.868,0,0,1-.868-.868V13.338a.868.868,0,0,1,.868-.868h9.105a.869.869,0,0,0,.869-.868v-.658a.868.868,0,0,1,.91-.882Zm13.153,9.805a.868.868,0,0,1,.868.868V34.21a2.157,2.157,0,0,1-2.479,2.381h-4.538a.854.854,0,0,1-.868-.868V33.663a.854.854,0,0,1,.868-.868h2.241a.532.532,0,0,0,.6-.6V24.8a.855.855,0,0,0-.868-.868h-4.426a.868.868,0,0,0-.868.868V38.524a.868.868,0,0,1-.882.868h-2.633a.868.868,0,0,1-.868-.868V24.8a.868.868,0,0,0-.868-.868h-4.2a.868.868,0,0,0-.868.868V35.19a.854.854,0,0,1-.868.868H92.417a.854.854,0,0,1-.868-.868V20.8a.868.868,0,0,1,.868-.868h8.4a.868.868,0,0,0,.868-.868V14.375a.868.868,0,0,1,.868-.868h2.605a.868.868,0,0,1,.868.868v4.693a.868.868,0,0,0,.868.868Z" transform="translate(-29.298 -10.059)"/><path class="b" d="M138.184,14.21v2.8a.56.56,0,0,1-.56.56h-9.231a.56.56,0,0,0-.56.56v16.4a.56.56,0,0,0,.56.56h10.156a.56.56,0,0,1,.574.56V38.64a.56.56,0,0,1-.574.56H112.9a.56.56,0,0,1-.56-.56V35.656a.56.56,0,0,1,.56-.56h10.044a.56.56,0,0,0,.56-.56V18.188a.56.56,0,0,0-.56-.56h-9.2a.56.56,0,0,1-.56-.56v-2.8a.56.56,0,0,1,.56-.56h9.2a.56.56,0,0,0,.56-.574V11.1a.56.56,0,0,1,.56-.56h3.208a.56.56,0,0,1,.56.56v1.975a.56.56,0,0,0,.56.574h9.231a.56.56,0,0,1,.56.56Z" transform="translate(-20.589 -9.867)"/><path class="b" d="M160.939,12.5v3.74H149.733v23H145.4v-23H134.352V12.5H145.4V10.43h4.328V12.5Zm-19.177,3.082-1.891,19.079c-.266,2.605-1.107,3.922-2.521,3.922h-3.53V34.691h.995c.56,0,.91-.658,1.065-1.989l1.667-17.117Zm11.08.28h4.2l2.409,17.286c.126.658.42.995.883.995h1.751v3.88h-3.782a2.367,2.367,0,0,1-2.423-2.115Z" transform="translate(-11.98 -9.911)"/><path class="b" d="M165.908,13.512v2.8a.546.546,0,0,1-.56.546h-1.331a.56.56,0,0,0-.56.56v3.838a.686.686,0,0,0,.686.7h.574a.686.686,0,0,1,.686.686V25.1a.686.686,0,0,1-.686.686h-.574a.686.686,0,0,0-.686.686v9.273a3.964,3.964,0,0,1-.952,2.675,2.8,2.8,0,0,1-2.213.925h-3.278a.56.56,0,0,1-.56-.546V36.275a.546.546,0,0,1,.56-.546h1.877c.49,0,.728-.784.728-1.947V27.954l-.378.939c-.378.9-.854,1.4-1.4,1.4H156.06a.56.56,0,0,1-.56-.56V26.651h.5c.56,0,.981-.392,1.247-1.177l2.325-6.219a1.1,1.1,0,0,0,0-.2V17.406a.56.56,0,0,0-.546-.56h-2.507a.546.546,0,0,1-.546-.546V13.5a.56.56,0,0,1,.546-.546h2.507a.56.56,0,0,0,.546-.56V11.341a.56.56,0,0,1,.56-.56h2.732a.56.56,0,0,1,.546.56v1.121a.56.56,0,0,0,.56.56h1.331A.56.56,0,0,1,165.908,13.512Zm16.515.2v2.8a.406.406,0,0,1-.42.42h-4.581a.434.434,0,0,0-.434.434v2.381a.434.434,0,0,0,.434.434H182a.406.406,0,0,1,.42.42v3.348a.406.406,0,0,1,0,.224L177.3,32.352a.448.448,0,0,0,0,.5l1.765,2.157a1.4,1.4,0,0,0,1.163.686H182.2a.42.42,0,0,1,.434.42v2.8a.42.42,0,0,1-.434.42h-4.286a2.339,2.339,0,0,1-1.821-.967L175,36.975a.42.42,0,0,0-.7,0l-.77,1.135a2.914,2.914,0,0,1-2.591,1.275h-4.2a.42.42,0,0,1-.434-.42v-2.8a.42.42,0,0,1,.434-.42H169a1.877,1.877,0,0,0,1.667-.84l1.191-1.695a.42.42,0,0,0,0-.49l-3.992-5.967a.42.42,0,0,1,.364-.658h3.782a.448.448,0,0,1,.336.154l1.807,2.227a.434.434,0,0,0,.686,0l2.717-3.908a.42.42,0,0,0-.35-.672h-9.805a.434.434,0,0,1-.434-.42V20.558a.42.42,0,0,1,.434-.42h5.239a.434.434,0,0,0,.364-.392V17.42a.434.434,0,0,0-.434-.434h-4.987a.42.42,0,0,1-.42-.42v-2.8a.434.434,0,0,1,.42-.42h4.987a.434.434,0,0,0,.434-.434V10.57a.406.406,0,0,1,.42-.42h3.11a.42.42,0,0,1,.42.42v2.283a.434.434,0,0,0,.434.434h4.581a.42.42,0,0,1,.448.42Z" transform="translate(-3.292 -10.023)"/><path class="b" d="M179.731,10.19h4.1l-.868,2.647h6.163v8.4a2.7,2.7,0,0,1-3.11,3.012h-3.964v2.059h7.074V36.356c0,1.975-1.037,2.956-3.11,2.956h-7.83V11.9l.714.939Zm5.9,6.009h-3.586v4.693h2.8c.518,0,.784-.2.784-.588Zm-3.586,13.531V36.02h2.8c.518,0,.784-.224.784-.658v-5.6Zm22.566-18.756v3.572h-5.6v2.8h5.379V34.157a2.8,2.8,0,0,1-3.152,3.208h-1.625V33.737h.35c.546,0,.812-.252.812-.77v-12.2h-1.765V39.34h-3.726V20.766h-1.6V37.071h-3.53V17.292h5.127v-2.8h-5.6V10.974Z" transform="translate(5.802 -10.007)"/><path class="b" d="M203.312,15.321h4.763l-2.7,6.4a3,3,0,0,1-2.9,2.143H199.32v-3.7h1.4c.6,0,1.023-.378,1.275-1.121Zm6.6,4.637h4.777L207,35.24H220.29c.238,0,.35-.2.35-.588l-1.625-6.584h4.062l2.213,7.7a4.286,4.286,0,0,1-.812,2.619,2.563,2.563,0,0,1-1.625.84H202.122v-2.76a4.553,4.553,0,0,1,.63-2.115Zm-6.4-9.6h17.019a1.4,1.4,0,0,1,1.485.995l2.115,7.844a1.681,1.681,0,0,0,1.723.9h.6v3.978h-2.8a3.236,3.236,0,0,1-3.376-2.269l-1.4-6.472q-.21-.588-1.051-.588H203.508Z" transform="translate(14.27 -9.941)"/><path class="b" d="M223.34,16.66h22.412a.7.7,0,0,1,.7.7v5.6c0,1.331-.868,1.989-2.605,1.989H223.34a.7.7,0,0,1-.7-.7V17.36A.7.7,0,0,1,223.34,16.66Zm.336,9.483H245.22a.714.714,0,0,1,.7.7v7.634c0,1.583-.868,2.367-2.619,2.367H223.691a.7.7,0,0,1-.7-.7v-9.3A.714.714,0,0,1,223.677,26.143Zm9.273-3.978V20.092a.714.714,0,0,0-.714-.7h-5.323a.714.714,0,0,0-.7.7v1.4a.714.714,0,0,0,.7.7h.294a.714.714,0,0,0,.658-.953v-.084a.686.686,0,0,1,.644-.953h2.045a.7.7,0,0,1,.658.448l.392,1.079a.714.714,0,0,0,.658.462Zm-6.275,7.956h15.661V29H226.618Zm14.96,3.824c.434,0,.644-.28.644-.84v-.252H226.618v1.093Zm.532-11.795c.546,0,.826-.21.826-.63v-1.4a.7.7,0,0,0-.7-.7H236.97a.7.7,0,0,0-.7.7v2.073H237a.714.714,0,0,0,.644-.42l.5-1.163a.728.728,0,0,1,.644-.406h1.989a.7.7,0,0,1,.644.981l-.448,1.009Z" transform="translate(23.616 -7.414)"/><path class="b" d="M247.4,15.917a1.625,1.625,0,0,1-1.051-.406l-1.737-4.525a.406.406,0,0,0-.378-.266h-18.35a.434.434,0,0,0-.392.28l-1.569,4.637a1.4,1.4,0,0,1-.953.406H221.81v2.7h1.163v1.961a.406.406,0,0,0,.406.406h23.057a.406.406,0,0,0,.406-.406V18.746h.728v-2.8Zm-6.724-2.255a.406.406,0,0,1,.392.266c.07.238.2.588.364,1.009H228.184c.126-.308.238-.644.364-1.009a.448.448,0,0,1,.392-.266ZM226.4,18.214a7.353,7.353,0,0,0,.812-1.135.406.406,0,0,1,.364-.2h14.6a.406.406,0,0,1,.336.154,5.954,5.954,0,0,0,1.064,1.149c.266.21.07.6-.294.6H226.713C226.377,18.788,226.18,18.452,226.4,18.214Z" transform="translate(23.284 -9.794)"/></g></g></g></svg>